<svg viewBox="0 -4.7 488.2 144.41999999999996" xmlns="http://www.w3.org/2000/svg" width="2500" height="764"><path d="M.64.42C20.09.3 39.56.48 59 .3c2.34 8.14 4.3 16.37 6.18 24.63A272 272 0 0 0 .61 52.78C.73 35.33.7 17.88.64.42zM77.45 21.69C76.04 14.52 74.29 7.43 72.62.34c21.14.15 42.32-.09 63.46.15 0 5 .06 10 .12 15-19.74.05-39.39 2.48-58.75 6.2zM346.99 7.8c-1.14-12.5 14.85-5.89 22.26-7.23 1.87 32.54.29 65.22.79 97.84-.53 12 1.14 24.31-.73 36.25-7.09.26-15.52 2.31-21.82-1.11-1.2-41.84-.23-83.84-.5-125.75zM79.53 34.63a243.53 243.53 0 0 1 56.57-5.86c-.2 26.36-.12 52.71-.06 79.07a258.75 258.75 0 0 1-55.76-5.71c2.74-22.4 2.82-45.16-.75-67.5zM171.34 36.21c17.63-9.69 41.44-5.27 55 9.52a59.61 59.61 0 0 1-15.7 14.47c-8.43-8.9-26.06-12.62-32.62.41 7.08 14.23 25.8 12.36 37.48 20.9 15.4 8.2 17.51 30.6 6.44 43.22-5 6.71-13.18 9.25-20.47 12.5-16 1.41-33.56-2.84-44.86-14.88-8.11-7 5.42-13.3 9.46-18.51 8.05 7.44 17.89 14.2 29.58 11.8 8.46.88 16.11-11.07 7.82-16.6-11.71-7.5-27.06-8.14-37.48-18-13.83-11.62-10.4-36.51 5.35-44.83zM254.1 43.03c18.71-17.45 52-15.61 68.32 4.3 10 12.24 13.88 29.14 11.27 44.63-24.72.26-49.43 0-74.12.12 3 8.81 8.32 17.48 17.19 21.32 12.15 5.33 26.42 1.73 36.43-6.41 4.66 4.25 8.35 9.37 12 14.5-10.78 13.06-29.31 17-45.54 15.76-13.79-4.07-27.47-11.27-34.88-24.13-13.78-21.62-9.91-52.95 9.33-70.09zm5.18 30.43c17.69.32 35.35.44 53-.06-3.81-11.27-12.94-22.64-26.06-21.67-13.2-.94-22.6 10.49-26.91 21.73zM391.62 54.51c11-17.13 33.38-26.8 53.15-20.73 8.14 2.23 13.44 9 18.16 15.52 1.7-5.21 3.37-10.45 5.18-15.64 6.71.26 13.41.59 20.09 1.46v99.33c-7 .53-14 .76-20.94.91q-2.37-6.24-4.66-12.48c-9.2 9.78-22.61 16.84-36.31 14.64-12.15-2.4-23.81-8.67-31.63-18.39-14.66-17.88-15.83-45.43-3.04-64.62zm30.66 2c-14.85 6.79-20.06 26.06-14.53 40.65 4.48 13.27 19.88 21.5 33.38 17.28 16.4-3.92 25.71-23.52 20.21-39.07-3.8-16.32-23.8-26.71-39.06-18.81zM0 68.42a255.72 255.72 0 0 1 67.33-30.78c2.17 20.41 2.66 41 .32 61.44C43.75 92.09 21.23 81.31 0 68.42zM.64 83.83a298.82 298.82 0 0 0 65.39 28.23c-1.79 7.7-3.6 15.4-5.51 23.11-20 0-40 .15-60.06-.09.44-17.11.15-34.18.18-51.25zM78.3 114.97c19 4.13 38.42 5.48 57.81 6.3 0 4.63.06 9.25.12 13.88-20.91.18-41.82.06-62.73.06 1.85-6.72 3.49-13.49 4.8-20.24z"/></svg>